HIERARCHY
ROOT Hips
{
 OFFSET 0.000000 0.000000 0.000000
 CHANNELS 6 Xposition Yposition Zposition Yrotation Xrotation Zrotation
 JOINT Chest
 {
  OFFSET 0.000000 10.385163 0.011643
  CHANNELS 3 Yrotation Xrotation Zrotation
  JOINT Chest2
  {
   OFFSET 0.000000 11.579334 -0.021150
   CHANNELS 3 Yrotation Xrotation Zrotation
   JOINT Chest3
   {
    OFFSET 0.000000 10.463212 0.000000
    CHANNELS 3 Yrotation Xrotation Zrotation
    JOINT Chest4
    {
     OFFSET 0.000000 10.463212 0.000000
     CHANNELS 3 Yrotation Xrotation Zrotation
     JOINT Neck
     {
      OFFSET 0.000000 14.544862 0.000000
      CHANNELS 3 Yrotation Xrotation Zrotation
      JOINT Head
      {
       OFFSET 0.000000 9.730630 -0.050295
       CHANNELS 3 Yrotation Xrotation Zrotation
       End Site
       {
        OFFSET 0.000000 18.757589 -0.026270
       }
      }
     }
     JOINT RightCollar
     {
      OFFSET -2.985174 8.102313 0.000000
      CHANNELS 3 Yrotation Xrotation Zrotation
      JOINT RightShoulder
      {
       OFFSET -13.558590 0.000000 0.000000
       CHANNELS 3 Yrotation Xrotation Zrotation
       JOINT RightElbow
       {
        OFFSET -28.208579 0.000000 0.000000
        CHANNELS 3 Yrotation Xrotation Zrotation
        JOINT RightWrist
        {
         OFFSET -23.322907 0.000000 0.010349
         CHANNELS 3 Yrotation Xrotation Zrotation
         End Site
         {
          OFFSET -17.603338 0.000000 0.000000
         }
        }
       }
      }
     }
     JOINT LeftCollar
     {
      OFFSET 2.985174 8.102313 0.000000
      CHANNELS 3 Yrotation Xrotation Zrotation
      JOINT LeftShoulder
      {
       OFFSET 13.558590 0.000000 0.000000
       CHANNELS 3 Yrotation Xrotation Zrotation
       JOINT LeftElbow
       {
        OFFSET 28.208579 0.000000 0.000000
        CHANNELS 3 Yrotation Xrotation Zrotation
        JOINT LeftWrist
        {
         OFFSET 23.322907 0.000000 0.010349
         CHANNELS 3 Yrotation Xrotation Zrotation
         End Site
         {
          OFFSET 17.603338 0.000000 0.000000
         }
        }
       }
      }
     }
    }
   }
  }
 }
 JOINT RightHip
 {
  OFFSET -8.341224 -0.057053 -0.005822
  CHANNELS 3 Yrotation Xrotation Zrotation
  JOINT RightKnee
  {
   OFFSET 0.000000 -44.280013 0.005508
   CHANNELS 3 Yrotation Xrotation Zrotation
   JOINT RightAnkle
   {
    OFFSET 0.000000 -43.261728 0.009315
    CHANNELS 3 Yrotation Xrotation Zrotation
    JOINT RightToe
    {
     OFFSET 0.000000 -8.082955 18.257715
     CHANNELS 3 Yrotation Xrotation Zrotation
     End Site
     {
      OFFSET 0.000000 -1.634678 7.189621
     }
    }
   }
  }
 }
 JOINT LeftHip
 {
  OFFSET 8.341224 -0.057053 -0.005822
  CHANNELS 3 Yrotation Xrotation Zrotation
  JOINT LeftKnee
  {
   OFFSET 0.000000 -44.280013 0.005508
   CHANNELS 3 Yrotation Xrotation Zrotation
   JOINT LeftAnkle
   {
    OFFSET 0.000000 -43.261728 0.009315
    CHANNELS 3 Yrotation Xrotation Zrotation
    JOINT LeftToe
    {
     OFFSET 0.000000 -8.082955 18.257715
     CHANNELS 3 Yrotation Xrotation Zrotation
     End Site
     {
      OFFSET 0.000000 -1.634678 7.189621
     }
    }
   }
  }
 }
}
MOTION
Frames: 8
Frame Time: 0.016667
-121.744213 96.653943 374.280138 -125.591746 -11.685202 0.484644 0.766441 4.969075 -0.035901 0.340695 2.208415 -0.024155 0.340695 2.208415 -0.024155 0.255577 1.656298 -0.019346 -3.463559 18.224173 0.894682 -6.664522 -2.217034 2.788883 -4.793297 7.988343 3.448531 0.445711 -18.991607 83.191979 2.924462 8.002656 -0.183568 -5.834087 0.328619 10.324721 -0.691323 13.358263 -11.436439 8.834115 -20.467732 -75.947537 -10.498570 14.964729 -9.612168 4.824474 -4.034974 -7.199797 -4.242425 22.548329 -2.700338 1.754442 -4.367420 2.034126 -13.319171 -8.552004 -2.203298 -0.000000 0.000000 0.000000 16.727123 19.189856 3.264349 0.437317 2.112749 0.720564 -4.807403 -11.682960 1.361213 0.000000 0.000000 0.000000
-121.812088 96.643942 374.288899 -125.679323 -11.635855 0.450955 0.839956 4.925934 -0.013140 0.373098 2.189278 -0.014758 0.373098 2.189278 -0.014758 0.279843 1.641950 -0.012404 -3.459244 18.226702 0.931345 -6.668549 -2.210231 2.854666 -4.763007 8.019473 3.409358 0.547050 -18.983736 83.291917 2.948145 7.857260 -0.162657 -5.811385 0.313353 10.347327 -0.701364 13.400605 -11.461807 8.765598 -20.549594 -75.940177 -10.659538 14.927119 -9.778503 4.725414 -4.085477 -7.317198 -4.612249 22.520043 -2.913570 2.042966 -4.400559 2.150072 -13.194813 -8.542825 -2.186474 0.000000 -0.000000 0.000000 16.746874 19.176006 3.254674 0.472224 2.122437 0.726622 -4.762701 -11.718941 1.376426 0.000000 -0.000000 0.000000
-121.864086 96.635921 374.294450 -125.712645 -11.609016 0.405130 0.898667 4.924388 0.007072 0.398953 2.188628 -0.006403 0.398953 2.188629 -0.006403 0.299201 1.641468 -0.006231 -3.475956 18.206996 0.979435 -6.716019 -2.242732 2.949634 -4.731978 8.060263 3.381907 0.687641 -18.984087 83.382211 2.983752 7.727643 -0.121980 -5.815931 0.311571 10.364883 -0.732504 13.448303 -11.458115 8.713834 -20.626595 -75.965489 -10.863598 14.940625 -9.970266 4.650408 -4.107386 -7.354954 -4.899309 22.512991 -3.031233 2.235210 -4.426200 2.193201 -13.095693 -8.519262 -2.147993 0.000000 0.000000 0.000000 16.795130 19.152961 3.279788 0.451089 2.155775 0.737861 -4.734363 -11.752648 1.395594 -0.000000 0.000000 -0.000000
-121.905475 96.629348 374.298569 -125.719326 -11.597301 0.353661 0.951475 4.952042 0.025912 0.422194 2.200958 0.001344 0.422194 2.200958 0.001344 0.316602 1.650721 -0.000513 -3.506294 18.171229 1.035970 -6.792125 -2.303614 3.065572 -4.699517 8.107063 3.363853 0.851974 -18.984418 83.469419 3.015499 7.611980 -0.076444 -5.839213 0.318999 10.386388 -0.776870 13.501379 -11.436229 8.676373 -20.695590 -76.011354 -11.089109 14.995635 -10.180744 4.593525 -4.109716 -7.357397 -5.134230 22.514808 -3.088775 2.372036 -4.437597 2.184716 -13.011129 -8.491376 -2.095292 0.000000 0.000000 0.000000 16.868030 19.124549 3.326846 0.398275 2.205404 0.751660 -4.719629 -11.784949 1.417049 0.000000 0.000000 0.000000
-121.948068 96.622983 374.304033 -125.737445 -11.593046 0.315238 1.003988 4.983572 0.040006 0.445353 2.215004 0.006972 0.445353 2.215004 0.006972 0.333948 1.661259 0.003614 -3.542940 18.142662 1.086884 -6.877694 -2.351044 3.172881 -4.670030 8.147836 3.355626 0.998426 -18.966779 83.553611 3.027335 7.558243 -0.032869 -5.871924 0.335655 10.436387 -0.820274 13.548655 -11.412884 8.665628 -20.736230 -76.060521 -11.282490 15.091001 -10.384358 4.549266 -4.111333 -7.368388 -5.256092 22.520821 -3.112492 2.449769 -4.435525 2.162194 -12.963742 -8.473021 -2.040150 0.000000 0.000000 0.000000 16.948577 19.114397 3.366258 0.356433 2.241142 0.762608 -4.715653 -11.811141 1.435596 0.000000 0.000000 0.000000
-121.995576 96.616641 374.312593 -125.788140 -11.595444 0.301421 1.061900 5.014938 0.045815 0.470995 2.228962 0.008857 0.470995 2.228962 0.008857 0.353169 1.671729 0.004923 -3.587038 18.126304 1.128159 -6.973220 -2.375941 3.264229 -4.642726 8.175510 3.357820 1.123107 -18.923852 83.633433 3.011069 7.590433 0.006090 -5.914271 0.364183 10.535343 -0.861160 13.581283 -11.391810 8.689223 -20.735524 -76.104523 -11.440073 15.221277 -10.589911 4.513936 -4.125256 -7.403236 -5.196990 22.527366 -3.096759 2.446221 -4.411639 2.131490 -12.976898 -8.472968 -1.983925 0.000000 0.000000 0.000000 17.045309 19.133923 3.387641 0.340717 2.251000 0.768416 -4.728435 -11.827552 1.448726 0.000000 0.000000 0.000000
-122.044288 96.610507 374.322498 -125.850265 -11.605298 0.300660 1.119487 5.050230 0.046875 0.496542 2.244655 0.008619 0.496542 2.244655 0.008619 0.372327 1.683499 0.004639 -3.637409 18.117201 1.163879 -7.078100 -2.387283 3.347001 -4.618364 8.197108 3.369783 1.229811 -18.862612 83.710648 2.974437 7.684457 0.042977 -5.965447 0.402294 10.662863 -0.901121 13.608116 -11.369333 8.739487 -20.706413 -76.151874 -11.565859 15.392456 -10.788492 4.491106 -4.138552 -7.446655 -5.024805 22.538011 -3.047160 2.383560 -4.374204 2.086800 -13.027272 -8.482360 -1.925225 0.000000 0.000000 0.000000 17.149768 19.171771 3.401493 0.335946 2.246946 0.771376 -4.751981 -11.837842 1.458979 -0.000000 -0.000000 0.000000
-122.094886 96.603905 374.331278 -125.898480 -11.617410 0.296968 1.165185 5.076327 0.050361 0.516785 2.256267 0.009603 0.516785 2.256267 0.009603 0.387504 1.692210 0.005293 -3.683311 18.123659 1.192044 -7.171471 -2.370483 3.413441 -4.603663 8.221760 3.390106 1.288147 -18.786216 83.790569 2.925047 7.816068 0.078652 -6.014930 0.442532 10.782043 -0.930839 13.644524 -11.351241 8.805938 -20.667427 -76.210845 -11.617439 15.620789 -10.927543 4.486075 -4.131378 -7.496543 -4.882270 22.558725 -3.006719 2.324672 -4.348940 2.048169 -13.067462 -8.488624 -1.871735 0.000000 0.000000 0.000000 17.219521 19.217540 3.409585 0.339255 2.234722 0.772966 -4.765459 -11.848320 1.468717 0.000000 -0.000000 0.000000
